Coordinates
version=1
nRows=29
nColumns=24
inDegrees=yes

Units are S.I. units (second, meters, Newtons, ...)
If the header above contains a line with 'inDegrees', this indicates whether rotational values are in degrees (yes) or radians (no).

endheader
time	pelvis_tilt	pelvis_list	pelvis_rotation	pelvis_tx	pelvis_ty	pelvis_tz	hip_flexion_r	hip_adduction_r	hip_rotation_r	knee_angle_r	ankle_angle_r	subtalar_angle_r	mtp_angle_r	hip_flexion_l	hip_adduction_l	hip_rotation_l	knee_angle_l	ankle_angle_l	subtalar_angle_l	mtp_angle_l	lumbar_extension	lumbar_bending	lumbar_rotation
      5.50000000	      9.12267078	      2.89822442	   -179.82704020	      0.31635190	      0.50122940	     -1.20921410	     79.80465978	    -27.99352001	     -4.27305954	   -113.18029379	     39.06694650	      7.59216047	      0.00000000	     84.41473593	    -30.94318850	      3.39487401	   -113.41886556	     40.12140978	     14.28369573	      0.00000000	    -14.58771273	      2.32241745	      3.13153748
      5.50500000	      9.07035767	      2.86479290	   -179.76976742	      0.31644177	      0.50046889	     -1.20918936	     79.87797912	    -28.08017137	     -4.19650537	   -113.32659523	     39.09320165	      7.56813805	      0.00000000	     84.49599966	    -30.94441202	      3.41813292	   -113.55756048	     40.11036643	     14.41615964	      0.00000000	    -14.67088531	      2.29333671	      3.11922087
      5.51000000	      9.08452256	      2.86332955	   -179.72324598	      0.31667444	      0.49971825	     -1.20929179	     80.00345658	    -28.11039444	     -4.15266797	   -113.45260125	     39.12390417	      7.53003713	      0.00000000	     84.63490408	    -30.94192833	      3.45167961	   -113.63148880	     40.14238566	     14.46483656	      0.00000000	    -14.70876197	      2.28530935	      3.11095568
      5.51500000	      9.08068761	      2.85573305	   -179.66734154	      0.31686259	      0.49898272	     -1.20937233	     80.11042814	    -28.15859747	     -4.10909043	   -113.58115771	     39.15548827	      7.49451165	      0.00000000	     84.74937369	    -30.93961699	      3.46105304	   -113.68516930	     40.12239794	     14.43698318	      0.00000000	    -14.75710818	      2.26587897	      3.06485511
      5.52000000	      9.08023643	      2.86163931	   -179.61561996	      0.31702434	      0.49831672	     -1.20941366	     80.20612698	    -28.20110206	     -4.07835768	   -113.70058500	     39.18396678	      7.47398779	      0.00000000	     84.89707648	    -30.92369793	      3.55083073	   -113.80779934	     40.09939495	     14.50554909	      0.00000000	    -14.79260938	      2.27627488	      3.06439790
      5.52500000	      9.10486994	      2.83000897	   -179.56574583	      0.31725399	      0.49755865	     -1.20939339	     80.37412043	    -28.25923619	     -3.99221212	   -113.83304245	     39.20200987	      7.43980312	      0.00000000	     85.02599007	    -30.89541378	      3.53099417	   -113.89021507	     40.11009449	     14.48917594	      0.00000000	    -14.80459222	      2.23653669	      3.04459830
      5.53000000	      9.12658619	      2.78355943	   -179.53243523	      0.31747795	      0.49689922	     -1.20943751	     80.53227730	    -28.29971792	     -3.88947293	   -113.95122956	     39.18997200	      7.14465265	      0.00000000	     85.13896360	    -30.88891804	      3.50883671	   -113.97160070	     40.10033282	     14.50228433	      0.00000000	    -14.82207526	      2.17967843	      3.01719504
      5.53500000	      9.13208849	      2.75959839	   -179.47931889	      0.31773942	      0.49627089	     -1.20951979	     80.64637041	    -28.33501845	     -3.81990391	   -114.05498145	     39.21695624	      7.11743845	      0.00000000	     85.24700006	    -30.85631820	      3.53254722	   -114.04112412	     40.08253244	     14.54777301	      0.00000000	    -14.86336656	      2.14584304	      2.99965492
      5.54000000	      9.15684514	      2.72547182	   -179.42374906	      0.31796300	      0.49564858	     -1.20958583	     80.78677416	    -28.39221201	     -3.75452813	   -114.15906091	     39.20478205	      7.07661059	      0.00000000	     85.36874194	    -30.83646916	      3.52453789	   -114.11593340	     40.05584901	     14.60537912	      0.00000000	    -14.86923175	      2.10301919	      2.96358130
      5.54500000	      9.16772681	      2.71188427	   -179.39755940	      0.31818192	      0.49502599	     -1.20960411	     80.87543674	    -28.39012778	     -3.53435433	   -114.22619111	     39.46477678	      7.68814067	      0.00000000	     85.49205797	    -30.83520640	      3.54993077	   -114.20903003	     40.05108554	     14.62915616	      0.00000000	    -14.89640616	      2.08549702	      2.99217847
      5.55000000	      9.15028544	      2.69568520	   -179.35868323	      0.31831178	      0.49448856	     -1.20954245	     81.01527368	    -28.46664328	     -3.64436893	   -114.38121195	     39.20530228	      7.13536542	      0.00000000	     85.58674238	    -30.81841238	      3.60018283	   -114.33789580	     40.03244331	     14.70677842	      0.00000000	    -14.94907036	      2.07994705	      2.95686791
      5.55500000	      9.19923368	      2.69875390	   -179.31254202	      0.31854556	      0.49393014	     -1.20954582	     81.08546975	    -28.46977613	     -3.41257949	   -114.36061735	     39.62931956	      7.98909709	      0.00000000	     85.74961715	    -30.78342035	      3.64510080	   -114.40321146	     39.99293012	     14.70981035	      0.00000000	    -14.92725382	      2.08888302	      2.96833555
      5.56000000	      9.17233392	      2.68066878	   -179.24976931	      0.31875546	      0.49347541	     -1.20966399	     81.20582064	    -28.54021218	     -3.56086628	   -114.54774234	     39.22188026	      7.04004365	      0.00000000	     85.80664445	    -30.75685512	      3.66050802	   -114.43833843	     40.00510800	     14.75181331	      0.00000000	    -14.99862290	      2.07073830	      2.90455869
      5.56500000	      9.23646426	      2.69805062	   -179.21219820	      0.31909438	      0.49298306	     -1.20977240	     81.26697366	    -28.50641848	     -3.35398105	   -114.49998469	     39.63015700	      7.90539534	      0.00000000	     85.99168012	    -30.73375281	      3.72480394	   -114.47239187	     39.96533822	     14.77163493	      0.00000000	    -14.98199339	      2.08665157	      2.90763715
      5.57000000	      9.20113513	      2.68872153	   -179.15630309	      0.31928917	      0.49257905	     -1.20985796	     81.37867722	    -28.57259636	     -3.51254409	   -114.68680828	     39.22634193	      6.95688834	      0.00000000	     86.04700705	    -30.70620399	      3.75761371	   -114.52128102	     39.95784259	     14.83916632	      0.00000000	    -15.05685797	      2.07185359	      2.89777044
      5.57500000	      9.23654312	      2.72746021	   -179.16178495	      0.31957933	      0.49213865	     -1.20999901	     81.41611858	    -28.49703442	     -3.33943250	   -114.65252287	     39.62622295	      7.74043166	      0.00000000	     86.21598714	    -30.73409521	      3.85472658	   -114.57547288	     39.91337763	     14.86808827	      0.00000000	    -15.06517552	      2.09672173	      2.95233286
      5.58000000	      9.20061137	      2.71266792	   -179.12178001	      0.31975087	      0.49177428	     -1.20995848	     81.52789415	    -28.56565559	     -3.46342652	   -114.83406875	     39.21999451	      6.96326052	      0.00000000	     86.25656418	    -30.70801346	      3.86714892	   -114.65394330	     39.90138385	     14.88420185	      0.00000000	    -15.14065190	      2.10156295	      2.92657744
      5.58500000	      9.20865450	      2.73702119	   -179.10021806	      0.31999654	      0.49136953	     -1.20999495	     81.53107367	    -28.54406319	     -3.30004822	   -114.79300390	     39.61682930	      7.69468462	      0.00000000	     86.37564909	    -30.70319977	      3.93682768	   -114.71207492	     39.86621554	     14.91317942	      0.00000000	    -15.17515089	      2.13326128	      2.95372550
      5.59000000	      9.20169182	      2.74377862	   -179.06215179	      0.32024974	      0.49107012	     -1.21006581	     81.63817319	    -28.58364912	     -3.48951213	   -114.92985183	     39.17878861	      6.74693708	      0.00000000	     86.44700010	    -30.68228201	      3.97078969	   -114.73675719	     39.86178448	     14.97514975	      0.00000000	    -15.23173871	      2.14874576	      2.93632971
      5.59500000	      9.19945276	      2.78759760	   -179.05512247	      0.32048324	      0.49072299	     -1.21027062	     81.59458944	    -28.51631549	     -3.33285298	   -114.87741912	     39.61802657	      7.62094233	      0.00000000	     86.55734393	    -30.74324503	      4.01035853	   -114.92476952	     40.12447440	     15.15264928	      0.00000000	    -15.27670898	      2.17400739	      2.97677030
      5.60000000	      9.21417649	      2.75500658	   -178.99962673	      0.32073675	      0.49041893	     -1.21021887	     81.76405111	    -28.60809588	     -3.47152434	   -115.02344147	     39.16833946	      6.70253580	      0.00000000	     86.64402140	    -30.64987268	      4.05115727	   -114.87173943	     39.66623630	     14.94919015	      0.00000000	    -15.30431374	      2.15696449	      2.95953034
      5.60500000	      9.22515779	      2.80367746	   -179.02643667	      0.32095159	      0.49014776	     -1.21038406	     81.74393799	    -28.52243057	     -3.32751217	   -114.96907336	     39.58137322	      7.53531419	      0.00000000	     86.78654563	    -30.75198133	      4.07337703	   -115.12296007	     39.84239620	     15.07465523	      0.00000000	    -15.32662544	      2.19478582	      3.02423198
      5.61000000	      9.25063436	      2.77860287	   -178.96861903	      0.32123586	      0.48985888	     -1.21031888	     81.91445449	    -28.62563229	     -3.48219901	   -115.11112877	     39.13492577	      6.61930340	      0.00000000	     86.85272664	    -30.66111143	      4.12272278	   -114.94164687	     39.62098870	     15.02579076	      0.00000000	    -15.34547723	      2.18596631	      3.00416027
      5.61500000	      9.25352429	      2.79506365	   -178.96272253	      0.32146179	      0.48959190	     -1.21047298	     81.88076345	    -28.58831449	     -3.30514649	   -115.04364648	     39.57732140	      7.50441674	      0.00000000	     86.94644526	    -30.71712193	      4.10022744	   -115.16916268	     39.78756344	     15.13719103	      0.00000000	    -15.37674623	      2.19316638	      3.01838558
      5.62000000	      9.26230764	      2.74121259	   -178.89148672	      0.32172444	      0.48929608	     -1.21037003	     82.04345322	    -28.71522203	     -3.40264740	   -115.18759921	     39.16281174	      6.69548263	      0.00000000	     86.97930268	    -30.61331562	      4.11686307	   -114.99077437	     39.56185100	     15.13265636	      0.00000000	    -15.40703746	      2.16587047	      2.96758818
      5.62500000	      9.30545304	      2.67733347	   -178.88104414	      0.32199491	      0.48900137	     -1.21025081	     82.14358992	    -28.73910886	     -3.13665851	   -115.12470017	     39.50313121	      7.44771239	      0.00000000	     87.13337416	    -30.53931821	      4.48193494	   -114.71277817	     39.28243685	     15.85041922	      0.00000000	    -15.39845057	      2.11861685	      2.98272509
      5.63000000	      9.24620815	      2.77005343	   -178.88729428	      0.32213697	      0.48883475	     -1.21047477	     82.13540606	    -28.73470449	     -3.45781642	   -115.27107218	     39.09126023	      6.54721675	      0.00000000	     87.10805346	    -30.68822797	      4.16748481	   -115.00084299	     39.61224507	     15.22395588	      0.00000000	    -15.49465448	      2.19502197	      3.06080784
      5.63500000	      9.33905430	      2.71338301	   -178.87475807	      0.32244578	      0.48852423	     -1.21036314	     82.27777888	    -28.74546888	     -3.16898847	   -115.19851144	     39.45949324	      7.34694289	      0.00000000	     87.34117092	    -30.59806537	      4.56622984	   -114.81495580	     39.12301170	     15.90477747	      0.00000000	    -15.42910400	      2.15918565	      3.02138394
      5.64000000	      9.26549534	      2.78173794	   -178.85714900	      0.32262458	      0.48844943	     -1.21065925	     82.24408421	    -28.76594377	     -3.48099604	   -115.32846657	     39.07824876	      6.48374392	      0.00000000	     87.24323092	    -30.72787931	      4.15075945	   -115.01686130	     39.45645362	     15.18583305	      0.00000000	    -15.54117300	      2.20413072	      3.06720086
